<mxfile host="app.diagrams.net" modified="2022-11-01T13:57:30.151Z" agent="5.0 (Macintosh; Intel Mac OS X 10_15_7) AppleWebKit/537.36 (KHTML, like Gecko) Chrome/106.0.0.0 Safari/537.36" etag="iFDZBCgnZ-9qFUduBATo" version="20.5.1" type="github">
  <diagram id="yzxA0IpxTii8pEKlae-4" name="Side-1">
    <mxGraphModel dx="1181" dy="598" grid="1" gridSize="10" guides="1" tooltips="1" connect="1" arrows="1" fold="1" page="1" pageScale="1" pageWidth="827" pageHeight="1169" math="1" shadow="0">
      <root>
        <mxCell id="0" />
        <mxCell id="1" parent="0" />
        <mxCell id="JgTM0zMBhbvU4f2Xm8r7-30" value="" style="curved=1;endArrow=none;html=1;rounded=0;strokeWidth=1;fontSize=12;endFill=0;" parent="1" edge="1">
          <mxGeometry width="50" height="50" relative="1" as="geometry">
            <mxPoint x="30" y="330" as="sourcePoint" />
            <mxPoint x="160" y="340" as="targetPoint" />
            <Array as="points">
              <mxPoint x="40" y="320" />
              <mxPoint x="80" y="350" />
              <mxPoint x="120" y="320" />
            </Array>
          </mxGeometry>
        </mxCell>
        <mxCell id="JgTM0zMBhbvU4f2Xm8r7-31" value="" style="curved=1;endArrow=none;html=1;rounded=0;strokeWidth=1;fontSize=12;endFill=0;" parent="1" edge="1">
          <mxGeometry width="50" height="50" relative="1" as="geometry">
            <mxPoint x="279.9999999999999" y="340" as="sourcePoint" />
            <mxPoint x="410" y="330" as="targetPoint" />
            <Array as="points">
              <mxPoint x="320" y="320" />
              <mxPoint x="360" y="350" />
              <mxPoint x="400" y="320" />
            </Array>
          </mxGeometry>
        </mxCell>
        <mxCell id="JrTcrJsVLr_1SCGYKZp2-1" value="&lt;font style=&quot;font-size: 13px;&quot;&gt;M&lt;/font&gt;" style="rounded=0;whiteSpace=wrap;html=1;" vertex="1" parent="1">
          <mxGeometry x="590" y="150" width="100" height="60" as="geometry" />
        </mxCell>
        <mxCell id="JrTcrJsVLr_1SCGYKZp2-2" value="" style="endArrow=none;html=1;rounded=0;fontSize=13;" edge="1" parent="1">
          <mxGeometry width="50" height="50" relative="1" as="geometry">
            <mxPoint x="450" y="120" as="sourcePoint" />
            <mxPoint x="450" y="240" as="targetPoint" />
          </mxGeometry>
        </mxCell>
        <mxCell id="JrTcrJsVLr_1SCGYKZp2-3" value="" style="endArrow=none;html=1;rounded=0;fontSize=13;exitX=-0.006;exitY=0.165;exitDx=0;exitDy=0;exitPerimeter=0;" edge="1" parent="1" source="JrTcrJsVLr_1SCGYKZp2-1">
          <mxGeometry width="50" height="50" relative="1" as="geometry">
            <mxPoint x="550" y="159.79000000000002" as="sourcePoint" />
            <mxPoint x="525" y="160" as="targetPoint" />
          </mxGeometry>
        </mxCell>
        <mxCell id="JrTcrJsVLr_1SCGYKZp2-4" value="" style="endArrow=none;html=1;rounded=0;fontSize=13;" edge="1" parent="1">
          <mxGeometry width="50" height="50" relative="1" as="geometry">
            <mxPoint x="530" y="170" as="sourcePoint" />
            <mxPoint x="510" y="170" as="targetPoint" />
          </mxGeometry>
        </mxCell>
        <mxCell id="JrTcrJsVLr_1SCGYKZp2-5" value="" style="endArrow=none;html=1;rounded=0;fontSize=13;" edge="1" parent="1">
          <mxGeometry width="50" height="50" relative="1" as="geometry">
            <mxPoint x="510" y="150" as="sourcePoint" />
            <mxPoint x="510" y="170" as="targetPoint" />
          </mxGeometry>
        </mxCell>
        <mxCell id="JrTcrJsVLr_1SCGYKZp2-6" value="" style="endArrow=none;html=1;rounded=0;fontSize=13;" edge="1" parent="1">
          <mxGeometry width="50" height="50" relative="1" as="geometry">
            <mxPoint x="510" y="150" as="sourcePoint" />
            <mxPoint x="510" y="150" as="targetPoint" />
          </mxGeometry>
        </mxCell>
        <mxCell id="JrTcrJsVLr_1SCGYKZp2-7" value="" style="endArrow=none;html=1;rounded=0;fontSize=13;" edge="1" parent="1">
          <mxGeometry width="50" height="50" relative="1" as="geometry">
            <mxPoint x="530" y="150" as="sourcePoint" />
            <mxPoint x="510" y="150" as="targetPoint" />
          </mxGeometry>
        </mxCell>
        <mxCell id="JrTcrJsVLr_1SCGYKZp2-8" value="" style="endArrow=none;html=1;rounded=0;fontSize=13;" edge="1" parent="1">
          <mxGeometry width="50" height="50" relative="1" as="geometry">
            <mxPoint x="525" y="150" as="sourcePoint" />
            <mxPoint x="525" y="170" as="targetPoint" />
          </mxGeometry>
        </mxCell>
        <mxCell id="JrTcrJsVLr_1SCGYKZp2-9" value="" style="endArrow=none;html=1;rounded=0;fontSize=13;" edge="1" parent="1">
          <mxGeometry width="50" height="50" relative="1" as="geometry">
            <mxPoint x="520" y="150" as="sourcePoint" />
            <mxPoint x="520" y="150" as="targetPoint" />
          </mxGeometry>
        </mxCell>
        <mxCell id="JrTcrJsVLr_1SCGYKZp2-10" value="" style="endArrow=none;html=1;rounded=0;fontSize=13;" edge="1" parent="1">
          <mxGeometry width="50" height="50" relative="1" as="geometry">
            <mxPoint x="500" y="160" as="sourcePoint" />
            <mxPoint x="450" y="160" as="targetPoint" />
            <Array as="points">
              <mxPoint x="510" y="160" />
            </Array>
          </mxGeometry>
        </mxCell>
        <mxCell id="JrTcrJsVLr_1SCGYKZp2-11" value="" style="group" vertex="1" connectable="0" parent="1">
          <mxGeometry x="480" y="190" width="80" height="20" as="geometry" />
        </mxCell>
        <mxCell id="JrTcrJsVLr_1SCGYKZp2-12" value="" style="endArrow=none;html=1;rounded=0;fontSize=13;" edge="1" parent="JrTcrJsVLr_1SCGYKZp2-11">
          <mxGeometry width="50" height="50" relative="1" as="geometry">
            <mxPoint x="20" as="sourcePoint" />
            <mxPoint x="10" y="10" as="targetPoint" />
          </mxGeometry>
        </mxCell>
        <mxCell id="JrTcrJsVLr_1SCGYKZp2-13" value="" style="endArrow=none;html=1;rounded=0;fontSize=13;" edge="1" parent="JrTcrJsVLr_1SCGYKZp2-11">
          <mxGeometry width="50" height="50" relative="1" as="geometry">
            <mxPoint x="20" as="sourcePoint" />
            <mxPoint x="30" y="20" as="targetPoint" />
          </mxGeometry>
        </mxCell>
        <mxCell id="JrTcrJsVLr_1SCGYKZp2-14" value="" style="endArrow=none;html=1;rounded=0;fontSize=13;" edge="1" parent="JrTcrJsVLr_1SCGYKZp2-11">
          <mxGeometry width="50" height="50" relative="1" as="geometry">
            <mxPoint x="30" y="20" as="sourcePoint" />
            <mxPoint x="40" as="targetPoint" />
          </mxGeometry>
        </mxCell>
        <mxCell id="JrTcrJsVLr_1SCGYKZp2-15" value="" style="endArrow=none;html=1;rounded=0;fontSize=13;" edge="1" parent="JrTcrJsVLr_1SCGYKZp2-11">
          <mxGeometry width="50" height="50" relative="1" as="geometry">
            <mxPoint x="40" as="sourcePoint" />
            <mxPoint x="50" y="20" as="targetPoint" />
          </mxGeometry>
        </mxCell>
        <mxCell id="JrTcrJsVLr_1SCGYKZp2-16" value="" style="endArrow=none;html=1;rounded=0;fontSize=13;" edge="1" parent="JrTcrJsVLr_1SCGYKZp2-11">
          <mxGeometry width="50" height="50" relative="1" as="geometry">
            <mxPoint x="50" y="20" as="sourcePoint" />
            <mxPoint x="60" as="targetPoint" />
          </mxGeometry>
        </mxCell>
        <mxCell id="JrTcrJsVLr_1SCGYKZp2-17" value="" style="endArrow=none;html=1;rounded=0;fontSize=13;" edge="1" parent="JrTcrJsVLr_1SCGYKZp2-11">
          <mxGeometry width="50" height="50" relative="1" as="geometry">
            <mxPoint x="70" y="10" as="sourcePoint" />
            <mxPoint x="60" as="targetPoint" />
          </mxGeometry>
        </mxCell>
        <mxCell id="JrTcrJsVLr_1SCGYKZp2-18" value="" style="endArrow=none;html=1;rounded=0;fontSize=13;" edge="1" parent="JrTcrJsVLr_1SCGYKZp2-11">
          <mxGeometry width="50" height="50" relative="1" as="geometry">
            <mxPoint x="80" y="10" as="sourcePoint" />
            <mxPoint x="70" y="10" as="targetPoint" />
          </mxGeometry>
        </mxCell>
        <mxCell id="JrTcrJsVLr_1SCGYKZp2-19" value="" style="endArrow=none;html=1;rounded=0;fontSize=13;" edge="1" parent="JrTcrJsVLr_1SCGYKZp2-11">
          <mxGeometry width="50" height="50" relative="1" as="geometry">
            <mxPoint x="10" y="10" as="sourcePoint" />
            <mxPoint y="10" as="targetPoint" />
          </mxGeometry>
        </mxCell>
        <mxCell id="JrTcrJsVLr_1SCGYKZp2-20" value="" style="endArrow=none;html=1;rounded=0;fontSize=13;" edge="1" parent="1">
          <mxGeometry width="50" height="50" relative="1" as="geometry">
            <mxPoint x="450" y="200" as="sourcePoint" />
            <mxPoint x="480" y="200" as="targetPoint" />
          </mxGeometry>
        </mxCell>
        <mxCell id="JrTcrJsVLr_1SCGYKZp2-21" value="" style="endArrow=none;html=1;rounded=0;fontSize=13;entryX=0;entryY=0.835;entryDx=0;entryDy=0;entryPerimeter=0;" edge="1" parent="1" target="JrTcrJsVLr_1SCGYKZp2-1">
          <mxGeometry width="50" height="50" relative="1" as="geometry">
            <mxPoint x="560" y="200" as="sourcePoint" />
            <mxPoint x="560" y="230" as="targetPoint" />
          </mxGeometry>
        </mxCell>
        <mxCell id="JrTcrJsVLr_1SCGYKZp2-22" value="&lt;font style=&quot;font-size: 13px;&quot;&gt;b&lt;/font&gt;" style="text;html=1;strokeColor=none;fillColor=none;align=center;verticalAlign=middle;whiteSpace=wrap;rounded=0;dashed=1;fontSize=12;" vertex="1" parent="1">
          <mxGeometry x="490" y="120" width="60" height="30" as="geometry" />
        </mxCell>
        <mxCell id="JrTcrJsVLr_1SCGYKZp2-23" value="k" style="text;html=1;strokeColor=none;fillColor=none;align=center;verticalAlign=middle;whiteSpace=wrap;rounded=0;dashed=1;fontSize=12;strokeWidth=2;" vertex="1" parent="1">
          <mxGeometry x="490" y="210" width="60" height="30" as="geometry" />
        </mxCell>
        <mxCell id="JrTcrJsVLr_1SCGYKZp2-24" value="" style="endArrow=none;html=1;rounded=0;strokeWidth=1;fontSize=12;" edge="1" parent="1">
          <mxGeometry width="50" height="50" relative="1" as="geometry">
            <mxPoint x="430" y="150" as="sourcePoint" />
            <mxPoint x="450" y="140" as="targetPoint" />
          </mxGeometry>
        </mxCell>
        <mxCell id="JrTcrJsVLr_1SCGYKZp2-25" value="" style="endArrow=none;html=1;rounded=0;strokeWidth=1;fontSize=12;" edge="1" parent="1">
          <mxGeometry width="50" height="50" relative="1" as="geometry">
            <mxPoint x="430" y="170" as="sourcePoint" />
            <mxPoint x="450" y="160" as="targetPoint" />
          </mxGeometry>
        </mxCell>
        <mxCell id="JrTcrJsVLr_1SCGYKZp2-26" value="" style="endArrow=none;html=1;rounded=0;strokeWidth=1;fontSize=12;" edge="1" parent="1">
          <mxGeometry width="50" height="50" relative="1" as="geometry">
            <mxPoint x="430" y="190" as="sourcePoint" />
            <mxPoint x="450" y="180" as="targetPoint" />
          </mxGeometry>
        </mxCell>
        <mxCell id="JrTcrJsVLr_1SCGYKZp2-27" value="" style="endArrow=none;html=1;rounded=0;strokeWidth=1;fontSize=12;" edge="1" parent="1">
          <mxGeometry width="50" height="50" relative="1" as="geometry">
            <mxPoint x="430" y="210" as="sourcePoint" />
            <mxPoint x="450" y="200" as="targetPoint" />
          </mxGeometry>
        </mxCell>
        <mxCell id="JrTcrJsVLr_1SCGYKZp2-28" value="" style="endArrow=none;html=1;rounded=0;strokeWidth=1;fontSize=12;" edge="1" parent="1">
          <mxGeometry width="50" height="50" relative="1" as="geometry">
            <mxPoint x="430" y="230" as="sourcePoint" />
            <mxPoint x="450" y="220" as="targetPoint" />
          </mxGeometry>
        </mxCell>
        <mxCell id="JrTcrJsVLr_1SCGYKZp2-29" value="" style="endArrow=none;html=1;rounded=0;strokeWidth=1;fontSize=12;" edge="1" parent="1">
          <mxGeometry width="50" height="50" relative="1" as="geometry">
            <mxPoint x="590" y="140" as="sourcePoint" />
            <mxPoint x="590" y="100" as="targetPoint" />
          </mxGeometry>
        </mxCell>
        <mxCell id="JrTcrJsVLr_1SCGYKZp2-30" value="" style="endArrow=none;html=1;rounded=0;strokeWidth=1;fontSize=12;endFill=0;startArrow=classic;startFill=1;" edge="1" parent="1">
          <mxGeometry width="50" height="50" relative="1" as="geometry">
            <mxPoint x="710" y="120" as="sourcePoint" />
            <mxPoint x="590" y="120" as="targetPoint" />
          </mxGeometry>
        </mxCell>
        <mxCell id="JrTcrJsVLr_1SCGYKZp2-31" value="" style="endArrow=none;html=1;rounded=0;strokeWidth=1;fontSize=12;" edge="1" parent="1">
          <mxGeometry width="50" height="50" relative="1" as="geometry">
            <mxPoint x="710" y="130" as="sourcePoint" />
            <mxPoint x="710" y="110" as="targetPoint" />
          </mxGeometry>
        </mxCell>
        <mxCell id="JrTcrJsVLr_1SCGYKZp2-32" value="py, vy, ay" style="text;html=1;strokeColor=none;fillColor=none;align=center;verticalAlign=middle;whiteSpace=wrap;rounded=0;glass=0;dashed=1;strokeWidth=2;fontSize=12;" vertex="1" parent="1">
          <mxGeometry x="620" y="90" width="60" height="30" as="geometry" />
        </mxCell>
        <mxCell id="JrTcrJsVLr_1SCGYKZp2-38" value="" style="group" vertex="1" connectable="0" parent="1">
          <mxGeometry x="140" y="60" width="210" height="315" as="geometry" />
        </mxCell>
        <mxCell id="JgTM0zMBhbvU4f2Xm8r7-1" value="" style="rounded=0;whiteSpace=wrap;html=1;" parent="JrTcrJsVLr_1SCGYKZp2-38" vertex="1">
          <mxGeometry x="30" y="30" width="100" height="60" as="geometry" />
        </mxCell>
        <mxCell id="JgTM0zMBhbvU4f2Xm8r7-25" value="" style="endArrow=none;html=1;strokeWidth=1;rounded=0;fontSize=13;exitX=0.332;exitY=-0.016;exitDx=0;exitDy=0;exitPerimeter=0;" parent="JrTcrJsVLr_1SCGYKZp2-38" source="JgTM0zMBhbvU4f2Xm8r7-26" edge="1">
          <mxGeometry width="50" height="50" relative="1" as="geometry">
            <mxPoint x="50" y="180" as="sourcePoint" />
            <mxPoint x="60" y="90" as="targetPoint" />
          </mxGeometry>
        </mxCell>
        <mxCell id="JgTM0zMBhbvU4f2Xm8r7-26" value="" style="rounded=0;whiteSpace=wrap;html=1;fontSize=13;" parent="JrTcrJsVLr_1SCGYKZp2-38" vertex="1">
          <mxGeometry x="20" y="260" width="120" height="40" as="geometry" />
        </mxCell>
        <mxCell id="JgTM0zMBhbvU4f2Xm8r7-27" value="" style="endArrow=none;html=1;strokeWidth=1;rounded=0;fontSize=13;entryX=0.696;entryY=1.008;entryDx=0;entryDy=0;exitX=0.654;exitY=-0.038;exitDx=0;exitDy=0;exitPerimeter=0;entryPerimeter=0;" parent="JrTcrJsVLr_1SCGYKZp2-38" source="JgTM0zMBhbvU4f2Xm8r7-26" target="JgTM0zMBhbvU4f2Xm8r7-1" edge="1">
          <mxGeometry width="50" height="50" relative="1" as="geometry">
            <mxPoint x="69.83999999999992" y="269.36" as="sourcePoint" />
            <mxPoint x="68.5" y="100.66000000000008" as="targetPoint" />
          </mxGeometry>
        </mxCell>
        <mxCell id="JrTcrJsVLr_1SCGYKZp2-33" value="" style="ellipse;whiteSpace=wrap;html=1;aspect=fixed;dashed=1;" vertex="1" parent="JrTcrJsVLr_1SCGYKZp2-38">
          <mxGeometry x="60" y="260" width="40" height="40" as="geometry" />
        </mxCell>
        <mxCell id="JrTcrJsVLr_1SCGYKZp2-34" value="" style="rounded=1;whiteSpace=wrap;html=1;" vertex="1" parent="JrTcrJsVLr_1SCGYKZp2-38">
          <mxGeometry x="10" y="50" width="20" height="20" as="geometry" />
        </mxCell>
        <mxCell id="JrTcrJsVLr_1SCGYKZp2-35" value="" style="ellipse;whiteSpace=wrap;html=1;" vertex="1" parent="JrTcrJsVLr_1SCGYKZp2-38">
          <mxGeometry y="60" width="20" height="60" as="geometry" />
        </mxCell>
        <mxCell id="JrTcrJsVLr_1SCGYKZp2-36" value="" style="ellipse;whiteSpace=wrap;html=1;" vertex="1" parent="JrTcrJsVLr_1SCGYKZp2-38">
          <mxGeometry width="20" height="60" as="geometry" />
        </mxCell>
        <mxCell id="JrTcrJsVLr_1SCGYKZp2-37" value="" style="ellipse;whiteSpace=wrap;html=1;aspect=fixed;dashed=1;" vertex="1" parent="JrTcrJsVLr_1SCGYKZp2-38">
          <mxGeometry x="75" y="275" width="10" height="10" as="geometry" />
        </mxCell>
        <mxCell id="JrTcrJsVLr_1SCGYKZp2-40" value="" style="rounded=0;whiteSpace=wrap;html=1;rotation=14;dashed=1;" vertex="1" parent="JrTcrJsVLr_1SCGYKZp2-38">
          <mxGeometry x="83" y="36" width="100" height="60" as="geometry" />
        </mxCell>
        <mxCell id="JrTcrJsVLr_1SCGYKZp2-41" value="" style="endArrow=none;html=1;strokeWidth=1;rounded=0;fontSize=13;exitX=0.332;exitY=-0.016;exitDx=0;exitDy=0;exitPerimeter=0;dashed=1;" edge="1" parent="JrTcrJsVLr_1SCGYKZp2-38" source="JrTcrJsVLr_1SCGYKZp2-42">
          <mxGeometry width="50" height="50" relative="1" as="geometry">
            <mxPoint x="75" y="175" as="sourcePoint" />
            <mxPoint x="107" y="90" as="targetPoint" />
          </mxGeometry>
        </mxCell>
        <mxCell id="JrTcrJsVLr_1SCGYKZp2-42" value="" style="rounded=0;whiteSpace=wrap;html=1;fontSize=13;rotation=14;dashed=1;" vertex="1" parent="JrTcrJsVLr_1SCGYKZp2-38">
          <mxGeometry x="20" y="260" width="120" height="40" as="geometry" />
        </mxCell>
        <mxCell id="JrTcrJsVLr_1SCGYKZp2-43" value="" style="endArrow=none;html=1;strokeWidth=1;rounded=0;fontSize=13;entryX=0.696;entryY=1.008;entryDx=0;entryDy=0;exitX=0.654;exitY=-0.038;exitDx=0;exitDy=0;exitPerimeter=0;entryPerimeter=0;dashed=1;" edge="1" parent="JrTcrJsVLr_1SCGYKZp2-38" source="JrTcrJsVLr_1SCGYKZp2-42" target="JrTcrJsVLr_1SCGYKZp2-40">
          <mxGeometry width="50" height="50" relative="1" as="geometry">
            <mxPoint x="73" y="267" as="sourcePoint" />
            <mxPoint x="112" y="103" as="targetPoint" />
          </mxGeometry>
        </mxCell>
        <mxCell id="JrTcrJsVLr_1SCGYKZp2-44" value="" style="ellipse;whiteSpace=wrap;html=1;aspect=fixed;dashed=1;rotation=14;" vertex="1" parent="JrTcrJsVLr_1SCGYKZp2-38">
          <mxGeometry x="60" y="260" width="40" height="40" as="geometry" />
        </mxCell>
        <mxCell id="JrTcrJsVLr_1SCGYKZp2-45" value="" style="rounded=1;whiteSpace=wrap;html=1;rotation=14;dashed=1;" vertex="1" parent="JrTcrJsVLr_1SCGYKZp2-38">
          <mxGeometry x="65" y="42" width="20" height="20" as="geometry" />
        </mxCell>
        <mxCell id="JrTcrJsVLr_1SCGYKZp2-46" value="" style="ellipse;whiteSpace=wrap;html=1;rotation=14;dashed=1;" vertex="1" parent="JrTcrJsVLr_1SCGYKZp2-38">
          <mxGeometry x="48" y="48" width="20" height="60" as="geometry" />
        </mxCell>
        <mxCell id="JrTcrJsVLr_1SCGYKZp2-47" value="" style="ellipse;whiteSpace=wrap;html=1;rotation=14;dashed=1;" vertex="1" parent="JrTcrJsVLr_1SCGYKZp2-38">
          <mxGeometry x="63" y="-10" width="20" height="60" as="geometry" />
        </mxCell>
        <mxCell id="JrTcrJsVLr_1SCGYKZp2-48" value="" style="ellipse;whiteSpace=wrap;html=1;aspect=fixed;dashed=1;rotation=14;" vertex="1" parent="JrTcrJsVLr_1SCGYKZp2-38">
          <mxGeometry x="75" y="275" width="10" height="10" as="geometry" />
        </mxCell>
        <mxCell id="JrTcrJsVLr_1SCGYKZp2-55" value="" style="endArrow=none;html=1;rounded=0;strokeColor=#0000CC;" edge="1" parent="JrTcrJsVLr_1SCGYKZp2-38">
          <mxGeometry width="50" height="50" relative="1" as="geometry">
            <mxPoint x="79.89" y="260" as="sourcePoint" />
            <mxPoint x="80" y="210" as="targetPoint" />
          </mxGeometry>
        </mxCell>
        <mxCell id="JrTcrJsVLr_1SCGYKZp2-56" value="" style="endArrow=none;html=1;rounded=0;strokeColor=#0000CC;" edge="1" parent="JrTcrJsVLr_1SCGYKZp2-38">
          <mxGeometry width="50" height="50" relative="1" as="geometry">
            <mxPoint x="79.88999999999999" y="260" as="sourcePoint" />
            <mxPoint x="98" y="210" as="targetPoint" />
          </mxGeometry>
        </mxCell>
        <mxCell id="JrTcrJsVLr_1SCGYKZp2-57" value="" style="curved=1;endArrow=none;html=1;rounded=0;strokeColor=#0000CC;endFill=0;" edge="1" parent="JrTcrJsVLr_1SCGYKZp2-38">
          <mxGeometry width="50" height="50" relative="1" as="geometry">
            <mxPoint x="80" y="219" as="sourcePoint" />
            <mxPoint x="94" y="220" as="targetPoint" />
            <Array as="points">
              <mxPoint x="86" y="217" />
              <mxPoint x="90" y="218" />
            </Array>
          </mxGeometry>
        </mxCell>
        <mxCell id="JrTcrJsVLr_1SCGYKZp2-51" value="" style="endArrow=none;html=1;rounded=0;strokeColor=#0000FF;" edge="1" parent="JrTcrJsVLr_1SCGYKZp2-38">
          <mxGeometry width="50" height="50" relative="1" as="geometry">
            <mxPoint x="79.69000000000001" y="60" as="sourcePoint" />
            <mxPoint x="80" y="-40" as="targetPoint" />
          </mxGeometry>
        </mxCell>
        <mxCell id="JrTcrJsVLr_1SCGYKZp2-53" value="" style="endArrow=classic;startArrow=classic;html=1;rounded=0;" edge="1" parent="1">
          <mxGeometry width="50" height="50" relative="1" as="geometry">
            <mxPoint x="220" y="40" as="sourcePoint" />
            <mxPoint x="274" y="40" as="targetPoint" />
          </mxGeometry>
        </mxCell>
        <mxCell id="JrTcrJsVLr_1SCGYKZp2-54" value="py" style="edgeLabel;html=1;align=center;verticalAlign=middle;resizable=0;points=[];" vertex="1" connectable="0" parent="JrTcrJsVLr_1SCGYKZp2-53">
          <mxGeometry x="-0.1318" y="1" relative="1" as="geometry">
            <mxPoint x="4" y="-9" as="offset" />
          </mxGeometry>
        </mxCell>
        <mxCell id="JrTcrJsVLr_1SCGYKZp2-59" value="" style="endArrow=openThin;html=1;rounded=0;strokeColor=#000000;endFill=0;" edge="1" parent="1">
          <mxGeometry width="50" height="50" relative="1" as="geometry">
            <mxPoint x="310" y="276" as="sourcePoint" />
            <mxPoint x="236" y="278" as="targetPoint" />
          </mxGeometry>
        </mxCell>
        <mxCell id="JrTcrJsVLr_1SCGYKZp2-58" value="$$ \phi $$" style="text;html=1;strokeColor=none;fillColor=none;align=center;verticalAlign=middle;whiteSpace=wrap;rounded=0;dashed=1;" vertex="1" parent="1">
          <mxGeometry x="290" y="260" width="60" height="30" as="geometry" />
        </mxCell>
        <mxCell id="JrTcrJsVLr_1SCGYKZp2-52" value="" style="endArrow=none;html=1;rounded=0;strokeColor=#0000CC;" edge="1" parent="1">
          <mxGeometry width="50" height="50" relative="1" as="geometry">
            <mxPoint x="274" y="127" as="sourcePoint" />
            <mxPoint x="274.16999999999996" y="20" as="targetPoint" />
          </mxGeometry>
        </mxCell>
        <mxCell id="JrTcrJsVLr_1SCGYKZp2-61" value="" style="shape=flexArrow;endArrow=classic;html=1;rounded=0;strokeColor=#000000;" edge="1" parent="1">
          <mxGeometry width="50" height="50" relative="1" as="geometry">
            <mxPoint x="334" y="190" as="sourcePoint" />
            <mxPoint x="414" y="190" as="targetPoint" />
          </mxGeometry>
        </mxCell>
      </root>
    </mxGraphModel>
  </diagram>
</mxfile>
